<svg width="64" height="85" viewBox="0 0 64 85" fill="none" xmlns="http://www.w3.org/2000/svg">
<path d="M5.94614 41.7852C2.94714 48.9742 8.15914 57.6512 15.7301 59.1722C9.83014 55.2102 6.14614 48.8452 5.94614 41.7852Z" fill="#FF5D2A"/>
<path d="M15.7299 59.1718L15.5459 59.1328C15.5689 59.1388 15.6239 59.1478 15.7299 59.1718Z" fill="#FF5D2A"/>
<path d="M2 55.2598C2.489 61.2798 10.039 65.1378 15.457 62.6718C9.879 61.4738 6.179 60.3768 2 55.2598Z" fill="#FF5D2A"/>
<path d="M46.5042 33.7931C50.0162 26.6251 45.0292 17.7571 37.4492 15.8301C43.2482 20.0631 46.6882 26.6541 46.5042 33.7931Z" fill="#FF5D2A"/>
<path d="M48.8652 28.8474C53.0572 25.1384 51.3672 17.7594 46.5332 15.3574C48.8632 19.9224 49.6842 23.7784 48.8652 28.8474Z" fill="#FF5D2A"/>
<path d="M60.5191 25.3442C59.5707 24.6192 58.4098 24.227 57.2161 24.2282C50.0101 24.2282 48.7181 33.6142 47.1191 37.2782C47.1191 37.2782 39.7301 21.8092 37.1601 16.7052C34.5101 11.4402 28.8531 12.5282 27.1961 15.3942C23.2601 11.3152 15.8231 14.6082 16.7711 19.5672C11.6671 19.1752 9.60406 24.2102 10.7371 27.4382C6.79206 27.3162 4.94806 32.1952 6.28206 35.6882C6.35106 35.8702 13.3551 49.6542 15.2411 54.3502C15.4601 54.8952 15.6811 55.4782 15.9131 56.0922C17.4381 60.1242 19.5271 65.6462 24.7531 70.0812C27.0031 71.9902 30.1181 72.9992 33.7641 72.9992C40.1901 72.9992 47.3451 69.8102 51.9931 64.8732C56.1561 60.4522 58.1511 55.0252 57.7631 49.1782C57.4151 43.9222 59.0871 38.9702 60.4301 34.9902C61.8871 30.6712 63.0371 27.2592 60.5191 25.3442ZM54.5721 49.0042C55.3851 60.6322 43.7301 70.4432 33.8421 70.4432C30.8211 70.4432 27.6921 69.9552 25.7371 68.2962C20.1311 63.5382 18.7241 57.6502 17.0991 53.6122C15.1581 48.7812 10.3941 39.4982 8.08506 34.8282C7.14006 32.9162 8.71906 28.8472 11.4691 28.8472L19.4001 45.7152L22.4051 47.5192C22.4051 47.5192 15.5231 32.5212 13.3441 27.3522C12.0721 24.3342 14.2641 20.6902 17.2181 21.1652L27.0641 42.1812L30.0701 43.9892L18.5941 19.7562C18.5481 15.4612 24.4251 15.3942 25.7911 17.9022C29.2481 24.2502 35.7381 38.1812 35.7381 38.1812L38.7421 39.9882L27.9691 17.1452C30.0731 14.3912 33.7851 14.7772 35.3851 18.1202C37.3071 22.1352 45.4461 39.5742 45.4461 39.5742C37.4111 42.5862 31.9261 51.3172 37.6691 59.9242C33.1121 50.5142 41.1851 43.8642 45.9541 41.6662C47.7591 40.8332 48.4231 39.2582 48.4231 39.2582L48.4191 39.2592C49.0481 38.1202 49.0111 36.5972 49.7611 34.1322C51.3861 28.7972 53.6151 25.9702 56.8861 25.9702C57.6401 25.9702 58.5901 26.5342 59.0261 27.1772C61.2291 30.4282 53.8161 38.2002 54.5721 49.0042Z" fill="#FF5D2A"/>
</svg>
