<svg width="293" height="39" viewBox="0 0 293 39" fill="none" xmlns="http://www.w3.org/2000/svg">
<path d="M14.8008 38.9125C11.0692 38.9125 7.92967 38.0985 5.38213 36.4705C2.83459 34.8072 1.04054 32.5598 0 29.7285L6.35091 26.0656C7.82203 29.8524 10.7104 31.7458 15.0161 31.7458C17.0972 31.7458 18.6222 31.3742 19.5909 30.631C20.5597 29.8878 21.0441 28.9499 21.0441 27.8174C21.0441 26.5079 20.4521 25.4993 19.268 24.7915C18.0839 24.0483 15.967 23.252 12.9171 22.4026C11.2307 21.9071 9.79547 21.4116 8.6114 20.9161C7.46322 20.4207 6.29709 19.7659 5.11302 18.9519C3.96483 18.1025 3.08575 17.0408 2.47578 15.7667C1.86581 14.4927 1.56082 13.0062 1.56082 11.3075C1.56082 7.9453 2.76282 5.27328 5.16684 3.29137C7.60674 1.27408 10.531 0.26543 13.9397 0.26543C16.9896 0.26543 19.6627 1.00864 21.9591 2.49507C24.2913 3.9461 26.1033 5.98109 27.395 8.60003L21.1518 12.1568C19.6448 8.97164 17.2407 7.37904 13.9397 7.37904C12.3968 7.37904 11.1769 7.73295 10.2799 8.44077C9.41872 9.1132 8.98815 9.99799 8.98815 11.0951C8.98815 12.263 9.47254 13.2186 10.4413 13.9618C11.446 14.6696 13.3477 15.4482 16.1464 16.2976C17.2946 16.6515 18.1557 16.9346 18.7298 17.147C19.3398 17.3239 20.1471 17.6248 21.1518 18.0495C22.1923 18.4388 22.9817 18.8104 23.5199 19.1643C24.094 19.5182 24.7398 19.996 25.4575 20.5976C26.1751 21.1993 26.7133 21.8186 27.0721 22.4557C27.4668 23.0927 27.7897 23.8713 28.0409 24.7915C28.3279 25.6762 28.4715 26.6495 28.4715 27.7112C28.4715 31.1442 27.1977 33.8693 24.6501 35.8866C22.1385 37.9039 18.8554 38.9125 14.8008 38.9125ZM45.9823 18.2087H39.9005V29.2507C39.9005 30.1709 40.1337 30.8433 40.6002 31.268C41.0666 31.6927 41.7484 31.9405 42.6454 32.0113C43.5424 32.0466 44.6547 32.029 45.9823 31.9582V38.1693C41.2102 38.7002 37.8373 38.2578 35.8639 36.8421C33.9263 35.4265 32.9576 32.896 32.9576 29.2507V18.2087H28.2751V11.626H32.9576V6.26422L39.9005 4.19385V11.626H45.9823V18.2087ZM68.8743 11.626H75.8172V38.1693H68.8743V35.0372C66.7932 37.6207 63.8689 38.9125 60.1014 38.9125C56.5133 38.9125 53.4276 37.5677 50.8442 34.8779C48.2966 32.1528 47.0228 28.8261 47.0228 24.8976C47.0228 20.9692 48.2966 17.6602 50.8442 14.9704C53.4276 12.2453 56.5133 10.8828 60.1014 10.8828C63.8689 10.8828 66.7932 12.1745 68.8743 14.7581V11.626ZM56.0648 30.3125C57.4642 31.6927 59.2403 32.3829 61.3931 32.3829C63.546 32.3829 65.3221 31.6927 66.7214 30.3125C68.1567 28.8968 68.8743 27.0919 68.8743 24.8976C68.8743 22.7034 68.1567 20.9162 66.7214 19.5359C65.3221 18.1203 63.546 17.4124 61.3931 17.4124C59.2403 17.4124 57.4642 18.1203 56.0648 19.5359C54.6655 20.9162 53.9658 22.7034 53.9658 24.8976C53.9658 27.0919 54.6655 28.8968 56.0648 30.3125ZM87.4416 16.1914C88.0875 14.4927 89.146 13.2186 90.6171 12.3692C92.1241 11.5198 93.7925 11.0951 95.6225 11.0951V18.7396C93.5055 18.4918 91.6038 18.9165 89.9174 20.0137C88.2669 21.1108 87.4416 22.9334 87.4416 25.4816V38.1693H80.4987V11.626H87.4416V16.1914ZM114.197 18.2087H108.115V29.2507C108.115 30.1709 108.348 30.8433 108.815 31.268C109.281 31.6927 109.963 31.9405 110.86 32.0113C111.757 32.0466 112.869 32.029 114.197 31.9582V38.1693C109.425 38.7002 106.052 38.2578 104.078 36.8421C102.141 35.4265 101.172 32.896 101.172 29.2507V18.2087H96.4896V11.626H101.172V6.26422L108.115 4.19385V11.626H114.197V18.2087ZM136.144 19.1643C136.144 19.8721 136.61 20.4561 137.543 20.9161C138.512 21.3408 139.678 21.7301 141.042 22.0841C142.405 22.4026 143.769 22.8273 145.132 23.3581C146.496 23.8536 147.644 24.703 148.577 25.9063C149.545 27.1096 150.03 28.6137 150.03 30.4187C150.03 33.1438 148.989 35.2496 146.908 36.736C144.863 38.187 142.297 38.9125 139.212 38.9125C133.686 38.9125 129.919 36.8068 127.909 32.5952L133.937 29.2507C134.727 31.5512 136.485 32.7014 139.212 32.7014C141.688 32.7014 142.925 31.9405 142.925 30.4187C142.925 29.7108 142.441 29.1446 141.472 28.7199C140.539 28.2598 139.391 27.8528 138.028 27.4989C136.664 27.145 135.301 26.7026 133.937 26.1717C132.574 25.6409 131.408 24.8092 130.439 23.6766C129.506 22.5087 129.039 21.0577 129.039 19.3235C129.039 16.7046 130.008 14.6519 131.946 13.1655C133.919 11.6437 136.359 10.8828 139.266 10.8828C141.454 10.8828 143.446 11.3782 145.24 12.3692C147.034 13.3247 148.451 14.705 149.492 16.51L143.571 19.6951C142.71 17.8902 141.275 16.9877 139.266 16.9877C138.369 16.9877 137.615 17.1824 137.005 17.5717C136.431 17.961 136.144 18.4919 136.144 19.1643ZM167.484 18.2087H161.402V29.2507C161.402 30.1709 161.635 30.8433 162.102 31.268C162.568 31.6927 163.25 31.9405 164.147 32.0113C165.044 32.0466 166.156 32.029 167.484 31.9582V38.1693C162.712 38.7002 159.339 38.2578 157.365 36.8421C155.428 35.4265 154.459 32.896 154.459 29.2507V18.2087H149.777V11.626H154.459V6.26422L161.402 4.19385V11.626H167.484V18.2087ZM188.947 11.626H195.889V38.1693H188.947V35.1965C187.26 37.6738 184.587 38.9125 180.927 38.9125C177.985 38.9125 175.545 37.9393 173.607 35.9928C171.706 34.0462 170.755 31.3565 170.755 27.9236V11.626H177.698V27.0742C177.698 28.8438 178.182 30.2063 179.151 31.1619C180.12 32.082 181.412 32.5421 183.026 32.5421C184.82 32.5421 186.255 31.9936 187.332 30.8964C188.408 29.7993 188.947 28.1536 188.947 25.9594V11.626ZM221.032 1.00864H227.975V38.1693H221.032V35.0372C218.987 37.6207 216.08 38.9125 212.313 38.9125C208.689 38.9125 205.585 37.5677 203.002 34.8779C200.454 32.1528 199.181 28.8261 199.181 24.8976C199.181 20.9692 200.454 17.6602 203.002 14.9704C205.585 12.2453 208.689 10.8828 212.313 10.8828C216.08 10.8828 218.987 12.1745 221.032 14.7581V1.00864ZM208.223 30.3125C209.658 31.6927 211.452 32.3829 213.605 32.3829C215.758 32.3829 217.534 31.6927 218.933 30.3125C220.332 28.8968 221.032 27.0919 221.032 24.8976C221.032 22.7034 220.332 20.9162 218.933 19.5359C217.534 18.1203 215.758 17.4124 213.605 17.4124C211.452 17.4124 209.658 18.1203 208.223 19.5359C206.823 20.9162 206.124 22.7034 206.124 24.8976C206.124 27.0919 206.823 28.8968 208.223 30.3125ZM236.155 8.44077C235.007 8.44077 234.002 8.03378 233.141 7.21979C232.316 6.3704 231.903 5.37945 231.903 4.24693C231.903 3.11442 232.316 2.12346 233.141 1.27408C234.002 0.424691 235.007 0 236.155 0C237.339 0 238.344 0.424691 239.169 1.27408C240.03 2.12346 240.461 3.11442 240.461 4.24693C240.461 5.37945 240.03 6.3704 239.169 7.21979C238.344 8.03378 237.339 8.44077 236.155 8.44077ZM232.71 38.1693V11.626H239.653V38.1693H232.71ZM267.32 34.8779C264.557 37.5677 261.185 38.9125 257.202 38.9125C253.219 38.9125 249.846 37.5677 247.083 34.8779C244.357 32.1528 242.993 28.8261 242.993 24.8976C242.993 20.9692 244.357 17.6602 247.083 14.9704C249.846 12.2453 253.219 10.8828 257.202 10.8828C261.185 10.8828 264.557 12.2453 267.32 14.9704C270.083 17.6602 271.465 20.9692 271.465 24.8976C271.465 28.8261 270.083 32.1528 267.32 34.8779ZM251.981 30.1532C253.381 31.5335 255.121 32.2236 257.202 32.2236C259.283 32.2236 261.023 31.5335 262.423 30.1532C263.822 28.773 264.522 27.0211 264.522 24.8976C264.522 22.7742 263.822 21.0223 262.423 19.6421C261.023 18.2618 259.283 17.5717 257.202 17.5717C255.121 17.5717 253.381 18.2618 251.981 19.6421C250.618 21.0223 249.936 22.7742 249.936 24.8976C249.936 27.0211 250.618 28.773 251.981 30.1532Z" fill="#141414"/>
<path d="M291.38 37.4023C290.3 38.467 289.004 38.9998 287.493 38.9998C285.981 38.9998 284.686 38.467 283.606 37.4023C282.526 36.3376 281.987 35.0596 281.987 33.5683C281.987 32.0769 282.526 30.7989 283.606 29.7342C284.686 28.6696 285.981 28.1367 287.493 28.1367C289.004 28.1367 290.3 28.6696 291.38 29.7342C292.46 30.7989 293 32.0769 293 33.5683C293 35.0596 292.46 36.3376 291.38 37.4023Z" fill="#FF5D2A"/>
</svg>
